<svg width="64" height="68" viewBox="0 0 64 68" fill="none" xmlns="http://www.w3.org/2000/svg">
<circle cx="32" cy="32" r="32" fill="#030F12"/>
<path d="M25.68 43.9C25.68 45.06 25.8 45.92 26.04 46.48C26.32 47 26.8 47.36 27.48 47.56C28.2 47.76 29.32 47.86 30.84 47.86H38.52C42.48 47.86 44.82 45.32 45.54 40.24C45.54 40.12 45.64 40.08 45.84 40.12C46.08 40.12 46.2 40.18 46.2 40.3C45.84 43.46 45.66 46.06 45.66 48.1C45.66 48.42 45.6 48.66 45.48 48.82C45.36 48.94 45.12 49 44.76 49H17.16C17.08 49 17.04 48.88 17.04 48.64C17.04 48.4 17.08 48.28 17.16 48.28C18.72 48.28 19.86 48.18 20.58 47.98C21.34 47.78 21.84 47.4 22.08 46.84C22.36 46.24 22.5 45.34 22.5 44.14V16.36C22.5 15.16 22.36 14.28 22.08 13.72C21.84 13.16 21.34 12.78 20.58 12.58C19.86 12.34 18.72 12.22 17.16 12.22C17.08 12.22 17.04 12.1 17.04 11.86C17.04 11.62 17.08 11.5 17.16 11.5L20.1 11.56C21.78 11.64 23.1 11.68 24.06 11.68C25.14 11.68 26.52 11.64 28.2 11.56L31.02 11.5C31.1 11.5 31.14 11.62 31.14 11.86C31.14 12.1 31.1 12.22 31.02 12.22C29.46 12.22 28.3 12.34 27.54 12.58C26.82 12.78 26.32 13.18 26.04 13.78C25.8 14.34 25.68 15.22 25.68 16.42V43.9Z" fill="#8A8686"/>
<path d="M45.55 28.25C45.55 28.35 45.45 28.4 45.25 28.4C45.0833 28.4 45 28.35 45 28.25C45 26.55 44.55 25.2 43.65 24.2C42.75 23.2 41.5667 22.7 40.1 22.7H36.65C35.4167 22.7 34.5 22.7833 33.9 22.95C33.3 23.1167 32.8833 23.4167 32.65 23.85C32.4167 24.2833 32.3 24.95 32.3 25.85V36.85H37.75C39.45 36.85 40.65 36.6 41.35 36.1C42.05 35.5667 42.4 34.6667 42.4 33.4C42.4 33.3333 42.5 33.3 42.7 33.3C42.9 33.3 43 33.3333 43 33.4L42.95 37.35C42.95 38.3167 42.9667 39.0333 43 39.5L43.05 41.85C43.05 41.9167 42.95 41.95 42.75 41.95C42.55 41.95 42.45 41.9167 42.45 41.85C42.45 40.35 42.0833 39.3 41.35 38.7C40.65 38.1 39.3833 37.8 37.55 37.8H32.3V48.75C32.3 49.8167 32.45 50.6 32.75 51.1C33.05 51.5667 33.6167 51.9 34.45 52.1C35.3167 52.3 36.6833 52.4 38.55 52.4C38.65 52.4 38.7 52.5 38.7 52.7C38.7 52.9 38.65 53 38.55 53C37.1833 53 36.1167 52.9833 35.35 52.95L31 52.9L27.7 52.95C27.1 52.9833 26.2667 53 25.2 53C25.1333 53 25.1 52.9 25.1 52.7C25.1 52.5 25.1333 52.4 25.2 52.4C26.5 52.4 27.45 52.3167 28.05 52.15C28.6833 51.9833 29.1 51.6667 29.3 51.2C29.5333 50.7 29.65 49.95 29.65 48.95V25.8C29.65 24.8 29.5333 24.0667 29.3 23.6C29.1 23.1333 28.6833 22.8167 28.05 22.65C27.45 22.45 26.5 22.35 25.2 22.35C25.1333 22.35 25.1 22.25 25.1 22.05C25.1 21.85 25.1333 21.75 25.2 21.75H45C45.3 21.75 45.45 21.9 45.45 22.2L45.55 28.25Z" fill="white"/>
</svg>
