<svg width="24" height="24" viewBox="0 0 24 24" fill="none" xmlns="http://www.w3.org/2000/svg">
<path d="M20.0092 24H3.99402C1.99212 24 1.46504 23.707 0.879123 23.1211C0.293201 22.5352 -0.00977489 22 0.000240665 20V4C0.000240665 2 0.293201 1.46484 0.879123 0.878906C1.46504 0.292969 1.99212 0 3.99402 0H20.0092C20.8373 0 22.0245 0.0124413 23.012 1C23.9996 1.98756 23.9996 3.17188 23.9996 4V20C24.013 22 23.7066 22.5352 23.1207 23.1211C22.5348 23.707 22.0111 24 20.0092 24ZM7.50003 9V6.75C7.50003 6.32812 7.37113 5.91406 7.11333 5.50781C6.85552 5.10156 6.57037 4.8125 6.25788 4.64062C5.94539 4.46875 5.70321 4.46094 5.53134 4.61719L3.82045 6.35156C3.35171 6.82031 3.08609 7.44922 3.02359 8.23828C2.9611 9.02734 3.08219 9.88672 3.38687 10.8164C3.69155 11.7461 4.17981 12.7305 4.85167 13.7695C5.52353 14.8086 6.32819 15.7969 7.26567 16.7344C8.20314 17.6719 9.19139 18.4766 10.2304 19.1484C11.2695 19.8203 12.2538 20.3125 13.1835 20.625C14.1131 20.9375 14.9725 21.0625 15.7615 21C16.5506 20.9375 17.1795 20.6719 17.6482 20.2031L19.3825 18.4688C19.5388 18.3125 19.531 18.0742 19.3591 17.7539C19.1872 17.4336 18.8982 17.1445 18.4919 16.8867C18.0857 16.6289 17.6716 16.5 17.2498 16.5H14.9998L13.4764 17.4375C12.7733 17.25 11.9062 16.7422 10.8749 15.9141C9.84372 15.0859 8.91406 14.1562 8.08595 13.125C7.25785 12.0938 6.75005 11.2266 6.56256 10.5234L7.50003 9ZM16.4529 12.75L17.9763 13.0078C17.8513 11.1328 17.1248 9.53125 15.7967 8.20312C14.4686 6.875 12.8749 6.14844 11.0156 6.02344L11.2499 7.54688C12.6093 7.71875 13.7733 8.28906 14.742 9.25781C15.7107 10.2266 16.281 11.3906 16.4529 12.75ZM11.5312 9.11719L11.8124 10.8047C12.4218 11.1016 12.8827 11.5625 13.1952 12.1875L14.8826 12.4688C14.6795 11.6406 14.2772 10.9258 13.6756 10.3242C13.0741 9.72266 12.3593 9.32031 11.5312 9.11719ZM10.5 3L10.7578 4.52344C12.3202 4.55469 13.7616 4.96484 15.0819 5.75391C16.4021 6.54297 17.4568 7.59766 18.2458 8.91797C19.0349 10.2383 19.445 11.6797 19.4763 13.2422L20.9997 13.5C20.9997 12.0781 20.7223 10.7188 20.1677 9.42188C19.613 8.125 18.8669 7.00781 17.9294 6.07031C16.992 5.13281 15.8748 4.38672 14.578 3.83203C13.2811 3.27734 11.9218 3 10.5 3Z" fill="#43FFD2"/>
</svg>
